<svg width="15" height="10" viewBox="0 0 15 10" fill="none" xmlns="http://www.w3.org/2000/svg">
<path d="M7.03271 0.236172L0.178261 8.72219C0.0638337 8.86378 0 9.0519 0 9.24752C0 9.44314 0.0638337 9.63126 0.178261 9.77285L0.186007 9.78199C0.241479 9.85087 0.30825 9.90571 0.382259 9.94319C0.456268 9.98067 0.535966 10 0.616507 10C0.697048 10 0.776747 9.98067 0.850755 9.94319C0.924764 9.90571 0.991535 9.85087 1.04701 9.78199L7.50129 1.79085L13.953 9.78199C14.0085 9.85087 14.0752 9.90571 14.1492 9.94319C14.2233 9.98067 14.303 10 14.3835 10C14.464 10 14.5437 9.98067 14.6177 9.94319C14.6917 9.90571 14.7585 9.85087 14.814 9.78199L14.8217 9.77285C14.9362 9.63126 15 9.44314 15 9.24752C15 9.0519 14.9362 8.86378 14.8217 8.72219L7.96729 0.236172C7.90701 0.16154 7.83451 0.102126 7.75419 0.0615295C7.67386 0.0209332 7.58739 0 7.5 0C7.41261 0 7.32614 0.0209332 7.24581 0.0615295C7.16549 0.102126 7.09299 0.16154 7.03271 0.236172Z" fill="#79BA11"/>
</svg>
