<svg width="15" height="10" viewBox="0 0 15 10" fill="none" xmlns="http://www.w3.org/2000/svg">
<path d="M13.9588 0.224199L7.49934 8.19409L1.03984 0.224199C0.924426 0.0815158 0.769497 0.00163574 0.608168 0.00163574C0.446839 0.00163574 0.291911 0.0815158 0.176501 0.224199C0.12062 0.293501 0.076225 0.376219 0.0459179 0.46751C0.0156107 0.558801 0 0.656829 0 0.755852C0 0.854875 0.0156107 0.952903 0.0459179 1.04419C0.076225 1.13548 0.12062 1.2182 0.176501 1.28751L7.04829 9.76779C7.16896 9.91667 7.33082 10 7.49934 10C7.66786 10 7.82971 9.91667 7.95039 9.76779L14.8222 1.28914C14.8785 1.21979 14.9232 1.13687 14.9537 1.04527C14.9843 0.953679 15 0.85527 15 0.755852C15 0.656435 14.9843 0.558025 14.9537 0.466431C14.9232 0.374838 14.8785 0.291916 14.8222 0.222563C14.7068 0.0798793 14.5518 0 14.3905 0C14.2292 0 14.0743 0.0798793 13.9588 0.222563V0.224199Z" fill="#FF0000"/>
</svg>
