<?xml version="1.0" encoding="UTF-8" standalone="no"?>
<svg
   width="460"
   height="120"
   viewBox="0 0 460 120"
   x="0"
   y="0"
   overflow="hidden"
   data-bbox="54.002464266317475 195.87040885327886 394.6610627843256 101.96566015369987"
   version="1.1"
   xmlns="http://www.w3.org/2000/svg">
  <g transform="translate(8.593535,10.257572)">
    <path
       fill="#fff"
       d="m 32.167735,66.240176 v 5.946583 H 19.071206 V 99.025982 H 13.124623 V 72.186759 H 0 v -5.946583 z m 37.129822,7.224864 v 3.797385 q 0,2.03214 -0.501011,3.633503 -0.501012,1.601363 -1.362564,2.823456 -0.85687,1.222093 -1.975951,2.09301 -1.119081,0.866234 -2.341174,1.428116 -1.226776,0.561882 -2.47228,0.810047 -1.245505,0.252846 -2.341175,0.252846 v 0 L 70.716309,99.025982 H 61.524858 L 49.135363,88.303403 h -4.274984 v -5.946582 h 13.443023 q 1.119082,-0.08897 2.046187,-0.468235 0.927105,-0.374588 1.601363,-1.01607 0.674258,-0.641482 1.039481,-1.545175 0.365223,-0.899011 0.365223,-2.064916 v 0 -3.750561 q 0,-0.505694 -0.126423,-0.767905 -0.126423,-0.262212 -0.3184,-0.388635 -0.196658,-0.126424 -0.412046,-0.149835 -0.220071,-0.01873 -0.402682,-0.01873 v 0 H 42.481746 V 99.025982 H 36.535163 V 69.23688 q 0,-0.61807 0.229435,-1.165905 0.229435,-0.552517 0.627435,-0.959882 0.402682,-0.412046 0.950517,-0.641482 0.547835,-0.229435 1.189316,-0.229435 v 0 h 22.564239 q 1.989998,0 3.361926,0.721082 1.371928,0.721082 2.228798,1.807387 0.85687,1.086305 1.23614,2.341174 0.374588,1.259552 0.374588,2.355221 z m 38.135313,-4.22816 v 29.789102 h -5.9419 V 90.977025 H 80.593648 v 8.048957 H 74.647065 V 82.633079 q 0,-3.591361 1.236141,-6.606794 1.23614,-3.020115 3.432161,-5.192725 2.191339,-2.167927 5.188042,-3.380655 2.996704,-1.212729 6.536559,-1.212729 v 0 h 13.400882 q 0.61807,0 1.1659,0.229435 0.54784,0.229436 0.95988,0.641482 0.41205,0.407365 0.64149,0.959882 0.22475,0.547835 0.22475,1.165905 z M 80.593648,82.633079 v 2.402045 H 101.49097 V 72.186759 H 91.039968 q -0.271576,0 -1.151858,0.0796 -0.880281,0.0796 -2.036821,0.398 -1.151858,0.318399 -2.434822,0.983293 -1.278281,0.664894 -2.355221,1.830798 -1.072258,1.165905 -1.769928,2.912421 -0.69767,1.751199 -0.69767,4.242208 z M 147.05831,79.959458 V 85.3067 q 0,2.996703 -1.04417,5.511125 -1.03948,2.514421 -2.86559,4.331172 -1.8308,1.821434 -4.34522,2.846868 -2.51443,1.030117 -5.4643,1.030117 v 0 h -16.0511 q -0.64148,0 -1.18931,-0.229435 -0.54784,-0.229435 -0.94584,-0.627435 -0.40268,-0.402682 -0.63211,-0.950517 -0.22476,-0.547834 -0.22476,-1.189316 v 0 -26.792399 q 0,-0.61807 0.22476,-1.165905 0.22943,-0.552517 0.63211,-0.959882 0.398,-0.412046 0.94584,-0.641482 0.54783,-0.229435 1.18931,-0.229435 v 0 h 16.0511 q 2.94987,0 5.4643,1.030117 2.51442,1.025434 4.34522,2.846868 1.82611,1.816751 2.86559,4.340537 1.04417,2.528469 1.04417,5.50176 z m -5.94659,5.347242 v -5.347242 q 0,-1.737151 -0.56188,-3.179315 -0.5572,-1.442163 -1.58731,-2.458233 -1.03012,-1.016069 -2.45824,-1.577951 -1.42811,-0.5572 -3.16526,-0.5572 v 0 h -13.10122 v 20.89264 h 13.10122 q 1.73715,0 3.16526,-0.557199 1.42812,-0.561882 2.45824,-1.577952 1.03011,-1.01607 1.58731,-2.448868 0.56188,-1.428117 0.56188,-3.18868 z m 38.72968,-5.670324 v 5.993406 h -18.77153 v -5.993406 z m 2.67362,13.443023 v 5.946583 h -21.44515 q -1.23146,0 -2.69704,-0.435458 -1.46089,-0.435459 -2.7064,-1.428117 -1.25018,-0.992658 -2.08364,-2.584656 -0.83346,-1.587317 -0.83346,-3.895714 v 0 -21.445157 q 0,-0.61807 0.22944,-1.165905 0.22943,-0.552517 0.62743,-0.959882 0.40268,-0.412046 0.95052,-0.641482 0.54783,-0.229435 1.18931,-0.229435 v 0 h 26.76899 v 5.946583 h -23.81911 v 18.495278 q 0,1.165904 0.61339,1.783974 0.61807,0.613388 1.80739,0.613388 v 0 z m 38.5016,-19.614359 v 3.797385 q 0,2.03214 -0.50101,3.633503 -0.50101,1.601363 -1.36256,2.823456 -0.85687,1.222093 -1.97595,2.09301 -1.11908,0.866234 -2.34118,1.428116 -1.22677,0.561882 -2.47228,0.810047 -1.2455,0.252846 -2.34117,0.252846 v 0 l 12.41291,10.722579 h -9.19145 l -12.3895,-10.722579 h -4.27498 v -5.946582 h 13.44302 q 1.11908,-0.08897 2.04619,-0.468235 0.9271,-0.374588 1.60136,-1.01607 0.67426,-0.641482 1.03948,-1.545175 0.36522,-0.899011 0.36522,-2.064916 v 0 -3.750561 q 0,-0.505694 -0.12642,-0.767905 -0.12642,-0.262212 -0.3184,-0.388635 -0.19666,-0.126424 -0.41205,-0.149835 -0.22007,-0.01873 -0.40268,-0.01873 v 0 h -19.61436 v 26.839223 h -5.94658 V 69.23688 q 0,-0.61807 0.22944,-1.165905 0.22943,-0.552517 0.62743,-0.959882 0.40268,-0.412046 0.95052,-0.641482 0.54783,-0.229435 1.18931,-0.229435 v 0 h 22.56424 q 1.99,0 3.36193,0.721082 1.37193,0.721082 2.2288,1.807387 0.85687,1.086305 1.23614,2.341174 0.37458,1.259552 0.37458,2.355221 z m 31.96369,-7.224864 h 6.63021 l -15.52199,31.619901 q -0.36522,0.730447 -1.0863,1.17527 -0.72109,0.449505 -1.592,0.449505 v 0 q -0.84282,0 -1.56391,-0.449505 -0.72108,-0.444823 -1.10971,-1.17527 v 0 L 223.23803,66.240176 h 6.64894 l 11.52326,23.617767 z m 43.71499,13.260412 v 6.264982 q 0,2.996704 -1.03011,5.511125 -1.03012,2.514421 -2.85624,4.340537 -1.83079,1.830798 -4.33117,2.846868 -2.50505,1.020752 -5.45493,1.020752 v 0 h -8.04896 q -2.94988,0 -5.4643,-1.020752 -2.51442,-1.01607 -4.34054,-2.846868 -1.8308,-1.826116 -2.87028,-4.340537 -1.03948,-2.514421 -1.03948,-5.511125 v 0 -6.264982 q 0,-2.973292 1.03948,-5.497077 1.03948,-2.528469 2.87028,-4.34522 1.82612,-1.816751 4.34054,-2.846868 2.51442,-1.030117 5.4643,-1.030117 v 0 h 8.04896 q 2.94988,0 5.45493,1.030117 2.50038,1.030117 4.33117,2.846868 1.82612,1.816751 2.85624,4.34522 1.03011,2.523785 1.03011,5.497077 z m -5.94658,6.264982 v -6.264982 q 0,-1.760563 -0.5572,-3.18868 -0.56188,-1.428116 -1.57795,-2.448868 -1.01607,-1.01607 -2.44887,-1.573269 -1.42812,-0.561882 -3.14185,-0.561882 v 0 h -8.04896 q -1.73715,0 -3.16527,0.561882 -1.42812,0.557199 -2.45823,1.573269 -1.03012,1.020752 -1.58732,2.448868 -0.56188,1.428117 -0.56188,3.18868 v 0 6.264982 q 0,1.760564 0.56188,3.18868 0.5572,1.428116 1.58732,2.448868 1.03011,1.01607 2.45823,1.573269 1.42812,0.561882 3.16527,0.561882 v 0 h 8.00213 q 1.73715,0 3.16995,-0.561882 1.42812,-0.557199 2.45355,-1.573269 1.03012,-1.020752 1.592,-2.448868 0.5572,-1.428116 0.5572,-3.18868 z m 17.81407,-19.525394 v 32.785806 h -5.94658 V 66.240176 Z m 36.3054,26.839223 v 5.946583 h -21.44516 q -0.82409,0 -1.77461,-0.196659 -0.94583,-0.191976 -1.87294,-0.604023 -0.9271,-0.412046 -1.76993,-1.062893 -0.8475,-0.650846 -1.49835,-1.577951 -0.65085,-0.927105 -1.03948,-2.149198 -0.38864,-1.222093 -0.38864,-2.753221 v 0 -16.097915 q 0,-0.824094 0.19198,-1.769928 0.19666,-0.950517 0.60402,-1.877622 0.41205,-0.922423 1.07694,-1.769928 0.6649,-0.847505 1.58732,-1.498351 0.92711,-0.650847 2.13983,-1.039482 1.21273,-0.388635 2.74386,-0.388635 v 0 h 21.44516 v 5.946583 h -21.44516 q -1.1659,0 -1.78397,0.613388 -0.61807,0.61807 -0.61807,1.830798 v 0 16.051092 q 0,1.142493 0.62743,1.769927 0.63212,0.627435 1.77461,0.627435 v 0 z m 32.57839,-13.443023 v 5.993406 h -18.77154 v -5.993406 z m 2.67362,13.443023 v 5.946583 h -21.44516 q -1.23145,0 -2.69703,-0.435458 -1.46089,-0.435459 -2.7064,-1.428117 -1.25018,-0.992658 -2.08364,-2.584656 -0.83346,-1.587317 -0.83346,-3.895714 v 0 -21.445157 q 0,-0.61807 0.22943,-1.165905 0.22944,-0.552517 0.62744,-0.959882 0.40268,-0.412046 0.95052,-0.641482 0.54783,-0.229435 1.18931,-0.229435 v 0 h 26.76899 v 5.946583 h -23.81911 v 18.495278 q 0,1.165904 0.61339,1.783974 0.61807,0.613388 1.80739,0.613388 v 0 z m 10.0376,2.94988 v 0 q 0,0.61807 -0.2388,1.15654 -0.2388,0.53847 -0.64148,0.93647 -0.398,0.402682 -0.93647,0.627434 -0.53847,0.229435 -1.13313,0.229435 v 0 q -0.61339,0 -1.15186,-0.229435 -0.53847,-0.224752 -0.93646,-0.627434 -0.40269,-0.398 -0.63212,-0.93647 -0.22475,-0.53847 -0.22475,-1.15654 v 0 q 0,-0.594658 0.22475,-1.128446 0.22943,-0.53847 0.63212,-0.941152 0.39799,-0.398 0.93646,-0.6368 0.53847,-0.243482 1.15186,-0.243482 v 0 q 0.59466,0 1.13313,0.243482 0.53847,0.2388 0.93647,0.6368 0.40268,0.402682 0.64148,0.941152 0.2388,0.533788 0.2388,1.128446 z M 401.45528,66.240176 V 99.025982 H 395.5087 V 66.240176 Z m 41.35765,13.260412 v 6.264982 q 0,2.996704 -1.03011,5.511125 -1.03012,2.514421 -2.85623,4.340537 -1.8308,1.830798 -4.33118,2.846868 -2.50505,1.020752 -5.45493,1.020752 v 0 h -8.04896 q -2.94988,0 -5.4643,-1.020752 -2.51442,-1.01607 -4.34054,-2.846868 -1.8308,-1.826116 -2.87028,-4.340537 -1.03948,-2.514421 -1.03948,-5.511125 v 0 -6.264982 q 0,-2.973292 1.03948,-5.497077 1.03948,-2.528469 2.87028,-4.34522 1.82612,-1.816751 4.34054,-2.846868 2.51442,-1.030117 5.4643,-1.030117 v 0 h 8.04896 q 2.94988,0 5.45493,1.030117 2.50038,1.030117 4.33118,2.846868 1.82611,1.816751 2.85623,4.34522 1.03011,2.523785 1.03011,5.497077 z m -5.94658,6.264982 v -6.264982 q 0,-1.760563 -0.5572,-3.18868 -0.56188,-1.428116 -1.57795,-2.448868 -1.01607,-1.01607 -2.44887,-1.573269 -1.42811,-0.561882 -3.14185,-0.561882 v 0 h -8.04896 q -1.73715,0 -3.16527,0.561882 -1.42812,0.557199 -2.45823,1.573269 -1.03012,1.020752 -1.58732,2.448868 -0.56188,1.428117 -0.56188,3.18868 v 0 6.264982 q 0,1.760564 0.56188,3.18868 0.5572,1.428116 1.58732,2.448868 1.03011,1.01607 2.45823,1.573269 1.42812,0.561882 3.16527,0.561882 v 0 h 8.00213 q 1.73715,0 3.16995,-0.561882 1.42812,-0.557199 2.45355,-1.573269 1.03012,-1.020752 1.592,-2.448868 0.5572,-1.428116 0.5572,-3.18868 z"
       style="stroke-width:0.468235"/>
    <g transform="matrix(0.93157524,0,0,0.93157524,-57.94391,-161.10524)">
      <path
         d="m 5.833,37.065 c 0,0 -4.161,33.195 30.567,33.195 0,0 8.655,-33.195 -30.567,-33.195 z"
         fill="#759e33"
         transform="matrix(1.1525787,0,0,1.1525787,342.72943,145.20171)"/>
      <path
         d="M 94.074,23.155 C 46.833,23.155 42.463,52.867 43.33,68.122 51.311,45.102 73.068,40.021 73.068,40.021 52.298,52.578 48.038,75.246 47.761,76.846 100.514,74.81 94.074,23.155 94.074,23.155 Z"
         fill="#79ba11"
         transform="matrix(1.1525787,0,0,1.1525787,342.08389,146.25056)"/>
    </g>
  </g>
</svg>
