<svg width="20" height="20" viewBox="0 0 20 20" fill="none" xmlns="http://www.w3.org/2000/svg">
<path d="M10.0033 18.895C11.2064 18.8951 12.3974 18.6539 13.5057 18.1858C14.614 17.7176 15.6173 17.032 16.456 16.1694C17.2948 15.3069 17.9522 14.2849 18.3892 13.1639C18.8262 12.0429 19.034 10.8457 19.0003 9.643C17.7416 10.5191 16.2301 10.9576 14.698 10.8911C13.1659 10.8246 11.698 10.2569 10.5199 9.27511C9.34183 8.29332 8.51876 6.95184 8.17719 5.45682C7.83562 3.9618 7.99445 2.39598 8.62926 1C6.38749 1.34547 4.35882 2.52466 2.94916 4.30167C1.53949 6.07867 0.852782 8.32242 1.02643 10.584C1.20008 12.8456 2.22127 14.9582 3.8857 16.4992C5.55012 18.0401 7.73502 18.8958 10.0033 18.895Z" stroke="black" stroke-linecap="round" stroke-linejoin="round"/>
</svg>
