<svg width="27" height="28" viewBox="0 0 27 28" fill="none" xmlns="http://www.w3.org/2000/svg">
<line y1="-0.5" x2="27.8249" y2="-0.5" transform="matrix(0.68924 -0.724533 0.68924 0.724533 3.95325 24.6482)" stroke="black"/>
<path d="M24.354 2.36997C25.2522 3.31413 25.2689 4.69911 24.5381 5.46731C23.8073 6.23551 22.4898 6.21795 21.5916 5.27379C20.6934 4.32962 20.6767 2.94464 21.4075 2.17645C22.1383 1.40825 23.4558 1.4258 24.354 2.36997Z" fill="white" stroke="black"/>
<path d="M5.32784 22.3704C6.22643 23.315 6.24321 24.7 5.51282 25.4678C4.78243 26.2356 3.46491 26.218 2.56632 25.2734C1.66773 24.3288 1.65095 22.9438 2.38134 22.176C3.11173 21.4082 4.42924 21.4258 5.32784 22.3704Z" fill="white" stroke="black"/>
</svg>
